<svg width="126" height="28" viewBox="0 0 126 28" fill="none" xmlns="http://www.w3.org/2000/svg">
    <path d="M34.9762 14.2309C34.9762 10.2443 37.9352 7.22326 41.979 7.22326C45.2092 7.22326 47.7246 9.22183 48.5172 12.1019H45.5571C44.9191 10.7081 43.623 9.85612 41.959 9.85612C39.4636 9.85612 37.7618 11.6959 37.7618 14.2309C37.7618 16.7659 39.4636 18.6067 41.959 18.6067C43.623 18.6067 44.9191 17.7547 45.5571 16.3609H48.5172C47.7246 19.2452 45.2092 21.2396 41.979 21.2396C37.9352 21.2385 34.9762 18.2186 34.9762 14.2309Z" fill="#0B1E46"/>
    <path d="M52.7008 6.75728H49.9341V21.0071H52.7008V6.75728Z" fill="#0B1E46"/>
    <path d="M57.0683 15.6835C57.0683 17.4444 58.2677 18.6067 59.815 18.6067C61.3623 18.6067 62.5627 17.4496 62.5627 15.6835C62.5627 13.9416 61.3633 12.7604 59.815 12.7604C58.2666 12.7604 57.0683 13.9416 57.0683 15.6835ZM65.3724 15.6835C65.3724 18.897 62.9348 21.2396 59.8202 21.2396C56.7246 21.2396 54.288 18.8781 54.288 15.6835C54.288 12.47 56.7635 10.1275 59.8202 10.1275C62.8907 10.1275 65.3672 12.469 65.3672 15.6835H65.3724Z" fill="#0B1E46"/>
    <path d="M76.7964 10.36V21.006H74.0298V19.5334C73.2561 20.6168 72.2144 21.2385 70.7428 21.2385C68.4019 21.2385 66.9513 19.6323 66.9513 17.0373V10.3589H69.718V16.4377C69.718 17.8315 70.2435 18.6057 71.6721 18.6057C73.2004 18.6057 74.033 17.6958 74.033 15.9539V10.3589H76.7985L76.7964 10.36Z" fill="#0B1E46"/>
    <path d="M86.5333 15.6825C86.5333 13.9406 85.3528 12.7593 83.8066 12.7593C82.2603 12.7593 81.1177 13.9406 81.1177 15.6825C81.1177 17.4444 82.274 18.6067 83.8066 18.6067C85.3539 18.6067 86.5333 17.4444 86.5333 15.6825ZM89.2989 6.75728V21.006H86.5322V19.5744C85.7964 20.58 84.6748 21.2396 83.1864 21.2396C80.4197 21.2396 78.3311 18.9549 78.3311 15.6825C78.3311 12.3922 80.4334 10.1265 83.1664 10.1265C83.8256 10.1135 84.4778 10.2641 85.0648 10.5647C85.6517 10.8654 86.1551 11.3067 86.5301 11.8494V6.75728H89.2989Z" fill="#0B1E46"/>
    <path d="M90.2312 6.72993H101.016V8.25621H96.5602V20.9819H94.6871V8.25621H90.2312V6.72993Z" fill="#0B1E46"/>
    <path d="M101.798 10.3084H103.585V20.9819H101.798V10.3084ZM101.758 6.27657H103.63V8.5602H101.758V6.27657Z" fill="#0B1E46"/>
    <path d="M111.08 19.8227C113.033 19.8227 114.253 18.1533 114.253 15.6488C114.253 13.1443 113.033 11.475 111.08 11.475C109.106 11.475 107.884 13.1443 107.884 15.6488C107.884 18.1533 109.11 19.8227 111.08 19.8227ZM106.196 10.3137H107.849V12.5942C108.5 11.0058 109.884 10.0696 111.592 10.0696C114.197 10.0696 116.028 12.1261 116.028 15.6446C116.028 19.1632 114.197 21.2196 111.592 21.2196C110.005 21.2196 108.703 20.4054 107.991 18.9391V25.0558H106.204L106.196 10.3137Z" fill="#0B1E46"/>
    <path d="M118.696 17.8672C118.837 19.2925 119.896 19.9237 121.584 19.9237C123.172 19.9237 124.23 19.3535 124.23 18.2743C124.23 17.4801 123.639 17.0121 122.175 16.564L119.876 15.8918C118.228 15.4027 117.393 14.4055 117.393 12.9592C117.393 10.9027 119.081 10.0686 121.299 10.0686C123.66 10.0686 125.532 11.0248 125.735 13.2242L124.108 13.3294C123.925 11.9862 122.766 11.375 121.299 11.375C119.998 11.334 119.142 11.901 119.142 12.9013C119.142 13.7565 119.753 14.2456 120.872 14.5717L123.192 15.2428C124.979 15.7519 126 16.6481 126 18.1954C126 20.1709 124.312 21.2301 121.544 21.2301C118.939 21.2301 117.251 20.2319 117.067 17.9514L118.696 17.8672Z" fill="#0B1E46"/>
    <path d="M13.9898 27.9989C21.7162 27.9989 27.9797 21.7312 27.9797 13.9995C27.9797 6.26778 21.7162 0 13.9898 0C6.26346 0 0 6.26778 0 13.9995C0 21.7312 6.26346 27.9989 13.9898 27.9989Z" fill="#6496DC"/>
    <path d="M10.9846 17.9135L20.0445 8.84736C20.2684 8.62301 20.5344 8.44503 20.8271 8.3236C21.1199 8.20217 21.4336 8.13967 21.7505 8.13967C22.0674 8.13967 22.3812 8.20217 22.6739 8.3236C22.9667 8.44503 23.2326 8.62301 23.4565 8.84736C23.6807 9.07147 23.8586 9.3376 23.98 9.63053C24.1013 9.92346 24.1638 10.2375 24.1638 10.5546C24.1638 10.8717 24.1013 11.1857 23.98 11.4786C23.8586 11.7715 23.6807 12.0377 23.4565 12.2618L17.8171 17.9135C16.9105 18.8192 15.6819 19.3279 14.4008 19.3279C13.1198 19.3279 11.8911 18.8192 10.9846 17.9135Z" fill="white"/>
    <path d="M16.9951 10.0865L7.93518 19.1526C7.71123 19.377 7.44528 19.555 7.15255 19.6764C6.85982 19.7978 6.54604 19.8603 6.22915 19.8603C5.91226 19.8603 5.59848 19.7978 5.30575 19.6764C5.01302 19.555 4.74707 19.377 4.52312 19.1526C4.07187 18.6992 3.81852 18.0854 3.81852 17.4454C3.81852 16.8055 4.07187 16.1917 4.52312 15.7382L10.1626 10.0865C11.0691 9.18079 12.2978 8.6721 13.5788 8.6721C14.8599 8.6721 16.0885 9.18079 16.9951 10.0865Z" fill="white"/>
</svg>
